<svg xmlns="http://www.w3.org/2000/svg" width="16" height="16" viewBox="0 0 16 16" fill="none"><path d="M8 0l1.978 1.913 2.724-.385.476 2.71 2.43 1.29L14.4 8l1.208 2.472-2.43 1.29-.476 2.71-2.724-.385L8 16l-1.978-1.913-2.724.385-.476-2.71-2.43-1.29L1.6 8 .392 5.528l2.43-1.29.476-2.71 2.724.385L8 0z" fill="#1C7CD6"/><path d="M10.323 5.823L7.25 8.897 5.677 7.323 5.5 7.147l-.177.176-.5.5L4.646 8l.177.177 2.25 2.25.177.177.177-.177 3.75-3.75.177-.177-.177-.177-.5-.5-.177-.177-.177.177z" fill="#fff" stroke="#fff" stroke-width=".5"/></svg>
